<svg width="24" height="24" viewBox="0 0 24 24" fill="none" xmlns="http://www.w3.org/2000/svg">
<path fill-rule="evenodd" clip-rule="evenodd" d="M6 4C4.34315 4 3 5.34315 3 7V19C3 20.6569 4.34315 22 6 22H18C19.6569 22 21 20.6569 21 19V7C21 5.34315 19.6569 4 18 4H6ZM6 8C5.44772 8 5 8.44771 5 9V19C5 19.5523 5.44772 20 6 20H18C18.5523 20 19 19.5523 19 19V9C19 8.44772 18.5523 8 18 8H6Z" fill="#1E2527" fill-opacity="0.4"/>
<path fill-rule="evenodd" clip-rule="evenodd" d="M7 3.5C7 2.67157 7.67157 2 8.5 2C9.32843 2 10 2.67157 10 3.5V4H7V3.5ZM14 3.5C14 2.67157 14.6716 2 15.5 2C16.3284 2 17 2.67157 17 3.5V4H14V3.5ZM9 10H7V12H9V10ZM13 10H11V12H13V10ZM17 10H15V12H17V10Z" fill="#1E2527" fill-opacity="0.4"/>
</svg>
